<svg xmlns="http://www.w3.org/2000/svg" viewBox="0 0 64 64" role="img" aria-label="Folk and Forks logo">
  <rect width="64" height="64" rx="16" fill="#0F172A"/>
  <rect x="5" y="5" width="54" height="54" rx="13" fill="none" stroke="#F59E0B" stroke-width="2"/>
  <path d="M23 15v15c0 3.2-2.2 5.8-5.1 6.6V49h-3.8V36.6C11.2 35.8 9 33.2 9 30V15h3.3v14h2.1V15h3.2v14h2.1V15H23Z" fill="#FBBF24"/>
  <path d="M40.5 15c7 0 12.5 5.5 12.5 12.4 0 5.7-3.8 10.5-9 12V49h-3.8v-9.2c-6.8-.2-12.2-5.7-12.2-12.4C28 20.5 33.5 15 40.5 15Zm0 3.8a8.6 8.6 0 1 0 0 17.2 8.6 8.6 0 0 0 0-17.2Z" fill="#F8FAFC"/>
  <path d="M38.8 25.2h3.4v12.9h-3.4z" fill="#F59E0B"/>
</svg>
